# xmcd
#
# Track frame offsets:
#	150
#	11702
#	23647
#	35204
#	46961
#	59062
#	69144
#	81573
#	94361
#	107623
#	119964
#	133950
#	149322
#	163283
#	176932
#	189275
#	202541
#	216121
#	227300
#	240370
#	252374
#	265206
#	280524
#	290495
#	302104
#	313203
#
# Disc length: 4328 seconds
#
# Revision: 1
# Processed by: cddbd v1.5.1PL2 Copyright (c) Steve Scherf et al.
# Submitted via: EasyCDDAExtractor 9.0.0.1
#
DISCID=8710e61a
DTITLE=Goree Carter - Boogie Uproar, Texas Blues and R&B (1947-54) - Disc C
DYEAR=2006
DGENRE=Blues
TTITLE0=Love's A Gamble
TTITLE1=Christmas Time
TTITLE2=Sweet Ole Woman's Blues
TTITLE3=Back Home Blues
TTITLE4=Rock Awhile
TTITLE5=I'll Send You
TTITLE6=How Can You Love Me
TTITLE7=My Love Is Coming Down
TTITLE8=Hoy - Hoy
TTITLE9=I Just Thought Of You
TTITLE10=She's Just Old Fashioned
TTITLE11=Workin' With My Baby
TTITLE12=Is It True
TTITLE13=What A Friend Will Do
TTITLE14=She's My Best Bet
TTITLE15=Serenade
TTITLE16=Come On Let's Boogie
TTITLE17=Lonely World
TTITLE18=Drunk Or Sober
TTITLE19=You Are My Everything
TTITLE20=Every Dog Has His Day
TTITLE21=Everybody's Love Crazy
TTITLE22=I'm Just Another Fool
TTITLE23=If It's True What They Tell Me
TTITLE24=Let's Rock
TTITLE25=True Love Is Hard To Find
EXTD=
EXTT0=
EXTT1=
EXTT2=
EXTT3=
EXTT4=
EXTT5=
EXTT6=
EXTT7=
EXTT8=
EXTT9=
EXTT10=
EXTT11=
EXTT12=
EXTT13=
EXTT14=
EXTT15=
EXTT16=
EXTT17=
EXTT18=
EXTT19=
EXTT20=
EXTT21=
EXTT22=
EXTT23=
EXTT24=
EXTT25=
PLAYORDER=
